<svg xmlns="http://www.w3.org/2000/svg" viewBox="0 0 418 261.24"><title>amazon-prime-logo</title><path d="M53,278a4.44,4.44,0,0,1-3.08-1A4.13,4.13,0,0,1,49,273.8V167.26a4.13,4.13,0,0,1,.94-3.13,4.44,4.44,0,0,1,3-.89H64.57a4.13,4.13,0,0,1,4.49,3.5l1.15,4.18a35.46,35.46,0,0,1,11.59-7.47,37.19,37.19,0,0,1,13.89-2.72,29.82,29.82,0,0,1,24.44,11.39,48,48,0,0,1,9.09,30.76,55.94,55.94,0,0,1-4.49,23.24,36.56,36.56,0,0,1-12.17,15.3,30.08,30.08,0,0,1-17.65,5.22,37.55,37.55,0,0,1-12.53-2.09,30.08,30.08,0,0,1-10.08-5.75v35.1a4.39,4.39,0,0,1-.89,3.13,4.39,4.39,0,0,1-3.13.89ZM88.18,229.1A15,15,0,0,0,101.39,223a34.16,34.16,0,0,0,4.23-19.17,35,35,0,0,0-4.18-19.38,15,15,0,0,0-13.32-6.11,30.55,30.55,0,0,0-15.67,4.33v42a29.46,29.46,0,0,0,15.67,4.44Z" transform="translate(-47 -125.38)" style="fill:#00a8e1"/><path d="M149.07,245a3.45,3.45,0,0,1-4-4V167.26a4.13,4.13,0,0,1,.94-3.13,4.44,4.44,0,0,1,3-.89h11.54a4.13,4.13,0,0,1,4.49,3.5l2.09,8.57a45.8,45.8,0,0,1,12.12-10,26.11,26.11,0,0,1,12.12-3h2.25a4.7,4.7,0,0,1,3.19.89,4.13,4.13,0,0,1,.94,3.13v13.47a4.39,4.39,0,0,1-.89,3,4.13,4.13,0,0,1-3.13.94h-7.36a47.89,47.89,0,0,0-9,1,44.24,44.24,0,0,0-9,2.66V241a4.44,4.44,0,0,1-.89,3,4.13,4.13,0,0,1-3.13.94Z" transform="translate(-47 -125.38)" style="fill:#00a8e1"/><path d="M220.89,150.49a13.94,13.94,0,0,1-9.77-3.34,13.18,13.18,0,0,1,0-18.33,15.67,15.67,0,0,1,19.59,0,13.12,13.12,0,0,1,0,18.28A13.94,13.94,0,0,1,220.89,150.49ZM213.21,245a3.45,3.45,0,0,1-4-4V167.26a4.13,4.13,0,0,1,.94-3.13,4.44,4.44,0,0,1,3-.89h15.41a3.34,3.34,0,0,1,4,4V241a4.39,4.39,0,0,1-.89,3,4.13,4.13,0,0,1-3.13.94Z" transform="translate(-47 -125.38)" style="fill:#00a8e1"/><path d="M256.45,245a3.45,3.45,0,0,1-4-4V167.26a4.13,4.13,0,0,1,.94-3.13,4.44,4.44,0,0,1,3-.89h11.54a4.13,4.13,0,0,1,4.49,3.5l1.31,4.33a69.25,69.25,0,0,1,15.3-7.94,43.19,43.19,0,0,1,13.89-2.4,21.57,21.57,0,0,1,20.37,10.45,65.65,65.65,0,0,1,15.41-7.83,47,47,0,0,1,14.94-2.4A23.4,23.4,0,0,1,371,167.21a23.76,23.76,0,0,1,6.16,17.44V241a4.44,4.44,0,0,1-.89,3,4.13,4.13,0,0,1-3.13.94H358a3.45,3.45,0,0,1-4-4V189.56q0-10.92-9.77-10.92a40.69,40.69,0,0,0-17.5,4.18V241a4.39,4.39,0,0,1-.89,3,4.13,4.13,0,0,1-3.13.94H307.32a3.45,3.45,0,0,1-4-4V189.56q0-10.92-9.77-10.92A39.12,39.12,0,0,0,275.88,183v58a4.44,4.44,0,0,1-.89,3,4.13,4.13,0,0,1-3.13.94Z" transform="translate(-47 -125.38)" style="fill:#00a8e1"/><path d="M433.09,247.38a40.84,40.84,0,0,1-30.55-10.92,42.77,42.77,0,0,1-10.45-31.34,46.43,46.43,0,0,1,10.65-32.64,39.17,39.17,0,0,1,30.34-11.86,34.78,34.78,0,0,1,23.35,7.21,24,24,0,0,1,8.41,19.32,20.58,20.58,0,0,1-9.09,18.18,47.58,47.58,0,0,1-26.69,6.16,63.25,63.25,0,0,1-15.67-1.78,21.73,21.73,0,0,0,6.48,15.35,25.59,25.59,0,0,0,16.76,4.65,66.8,66.8,0,0,0,8.72-.57,109.31,109.31,0,0,0,11.8-2.51h1.72q2.72,0,2.72,3.71v7.36a6.63,6.63,0,0,1-.73,3.6,5.9,5.9,0,0,1-2.82,1.83A68.89,68.89,0,0,1,433.09,247.38Zm-5.22-50.29a21.83,21.83,0,0,0,11.86-2.51,8.57,8.57,0,0,0,3.71-7.63q0-10.08-12-10.08-15.41,0-17.81,18.91a73.12,73.12,0,0,0,14.15,1.31Z" transform="translate(-47 -125.38)" style="fill:#00a8e1"/><path d="M424.68,335c-45.75,33.74-112.08,51.65-169.16,51.65A306.37,306.37,0,0,1,48.85,307.91c-4.28-3.86-.47-9.14,4.7-6.16a416.36,416.36,0,0,0,206.77,54.79,411.81,411.81,0,0,0,157.52-32.22C425.77,321,432.25,329.16,424.68,335Z" transform="translate(-47 -125.38)" style="fill:#00a8e1"/><path d="M443.95,313.5c-5.85-7.47-38.65-3.55-53.43-1.78-4.49.52-5.22-3.34-1.15-6.16,26.11-18.38,69.1-13.06,74.06-6.89s-1.31,49.15-26.11,69.67c-3.76,3.13-7.36,1.46-5.69-2.72C437.21,351.57,449.59,320.75,443.95,313.5Z" transform="translate(-47 -125.38)" style="fill:#00a8e1"/></svg>